<?xml version="1.0" standalone="no"?>
<!DOCTYPE svg PUBLIC "-//W3C//DTD SVG 20010904//EN"
 "http://www.w3.org/TR/2001/REC-SVG-20010904/DTD/svg10.dtd">
<svg version="1.0" xmlns="http://www.w3.org/2000/svg"
 width="500.000000pt" height="500.000000pt" viewBox="0 0 500.000000 500.000000"
 preserveAspectRatio="xMidYMid meet">

<g transform="translate(0.000000,500.000000) scale(0.100000,-0.100000)"
fill="#000000" stroke="none">
<path d="M2265 4989 c-577 -56 -1113 -308 -1526 -719 -394 -391 -628 -859
-716 -1430 -21 -142 -24 -509 -5 -645 117 -816 552 -1466 1247 -1866 836 -480
1871 -431 2670 126 850 593 1241 1651 985 2665 -173 685 -637 1268 -1271 1599
-418 218 -916 315 -1384 270z m1685 -798 c123 -39 191 -112 241 -256 32 -94
33 -277 1 -405 -57 -234 -198 -522 -409 -838 l-135 -203 27 -37 c15 -20 80
-117 145 -214 315 -473 446 -896 366 -1185 -19 -69 -79 -158 -135 -199 -98
-71 -276 -100 -453 -74 -174 25 -499 152 -686 266 -191 119 -470 313 -612 427
-270 216 -648 602 -848 866 -41 53 -77 97 -80 98 -9 3 -212 -300 -282 -420
-219 -375 -314 -813 -216 -1005 96 -189 326 -235 669 -136 245 71 451 172 731
356 66 43 124 78 129 78 22 0 -42 -55 -133 -115 -433 -285 -883 -441 -1146
-396 -142 25 -232 89 -288 204 -53 108 -63 193 -42 339 29 201 76 337 211 613
84 172 161 303 268 453 32 45 57 86 55 90 -2 4 -42 66 -89 137 -313 471 -459
847 -447 1151 4 102 7 117 40 186 44 93 100 151 183 189 147 69 347 64 592
-16 202 -66 579 -268 762 -409 34 -26 60 -51 57 -54 -3 -3 -104 54 -223 125
-389 233 -579 316 -805 349 -289 42 -466 -31 -538 -222 -15 -42 -20 -79 -20
-158 0 -236 79 -474 279 -839 96 -177 230 -382 248 -382 7 0 60 59 118 130
299 366 498 565 895 891 203 166 421 311 664 440 168 89 339 150 524 189 98
20 298 13 382 -14z"/>
<path d="M3600 4149 c-253 -59 -497 -167 -768 -340 -427 -273 -806 -596 -1153
-984 -122 -137 -269 -317 -269 -330 0 -34 422 -509 587 -661 107 -97 306 -265
428 -359 50 -38 115 -90 145 -114 30 -25 111 -82 180 -127 479 -315 916 -453
1176 -373 58 18 77 30 129 82 93 95 117 190 95 377 -21 182 -75 340 -214 621
-105 213 -293 516 -316 507 -4 -2 -39 -43 -78 -93 -166 -215 -466 -528 -697
-726 -108 -93 -215 -172 -223 -164 -8 8 24 40 208 203 312 278 499 475 684
720 l78 104 -33 46 c-93 133 -369 442 -556 622 -71 69 -193 179 -271 244 -124
104 -157 136 -137 136 12 0 86 -53 160 -115 262 -219 471 -431 723 -732 74
-89 139 -160 143 -157 5 3 62 85 127 183 127 190 272 467 336 641 49 135 76
277 76 402 0 203 -46 287 -200 364 -50 25 -66 28 -185 30 -71 2 -150 -2 -175
-7z"/>
</g>
</svg>
